<?xml version="1.0" encoding="UTF-8" standalone="no"?>
<!DOCTYPE svg PUBLIC "-//W3C//DTD SVG 1.1//EN"
 "http://www.w3.org/Graphics/SVG/1.1/DTD/svg11.dtd">
<!-- Generated by graphviz version 2.50.0 (0)
 -->
<!-- Title: Tree Pages: 1 -->
<svg width="576pt" height="422pt"
 viewBox="0.00 0.00 576.00 422.00" xmlns="http://www.w3.org/2000/svg" xmlns:xlink="http://www.w3.org/1999/xlink">
<g id="graph0" class="graph" transform="scale(1 1) rotate(0) translate(4 418)">
<title>Tree</title>
<polygon fill="white" stroke="transparent" points="-4,4 -4,-418 572,-418 572,4 -4,4"/>
<!-- 0 -->
<g id="node1" class="node">
<title>0</title>
<path fill="#f5cdb0" stroke="black" d="M91,-252C91,-252 12,-252 12,-252 6,-252 0,-246 0,-240 0,-240 0,-220 0,-220 0,-214 6,-208 12,-208 12,-208 91,-208 91,-208 97,-208 103,-214 103,-220 103,-220 103,-240 103,-240 103,-246 97,-252 91,-252"/>
<text text-anchor="start" x="24" y="-241.6" font-family="Helvetica,sans-Serif" font-size="8.00">is_male ≤ 0.5</text>
<text text-anchor="start" x="8" y="-232.6" font-family="Helvetica,sans-Serif" font-size="8.00">squared_error = 0.24</text>
<text text-anchor="start" x="20.5" y="-223.6" font-family="Helvetica,sans-Serif" font-size="8.00">samples = 200</text>
<text text-anchor="start" x="28" y="-214.6" font-family="Helvetica,sans-Serif" font-size="8.00">value = 0.4</text>
</g>
<!-- 1 -->
<g id="node2" class="node">
<title>1</title>
<path fill="#eca36f" stroke="black" d="M246,-279C246,-279 151,-279 151,-279 145,-279 139,-273 139,-267 139,-267 139,-247 139,-247 139,-241 145,-235 151,-235 151,-235 246,-235 246,-235 252,-235 258,-241 258,-247 258,-247 258,-267 258,-267 258,-273 252,-279 246,-279"/>
<text text-anchor="start" x="173" y="-268.6" font-family="Helvetica,sans-Serif" font-size="8.00">pclass ≤ 0.5</text>
<text text-anchor="start" x="147" y="-259.6" font-family="Helvetica,sans-Serif" font-size="8.00">squared_error = 0.19776</text>
<text text-anchor="start" x="170" y="-250.6" font-family="Helvetica,sans-Serif" font-size="8.00">samples = 70</text>
<text text-anchor="start" x="164.5" y="-241.6" font-family="Helvetica,sans-Serif" font-size="8.00">value = 0.72857</text>
</g>
<!-- 0&#45;&gt;1 -->
<g id="edge1" class="edge">
<title>0&#45;&gt;1</title>
<path fill="none" stroke="black" d="M103.21,-239.44C111.49,-240.98 120.18,-242.6 128.81,-244.21"/>
<polygon fill="black" stroke="black" points="128.39,-247.69 138.87,-246.08 129.68,-240.81 128.39,-247.69"/>
<text text-anchor="middle" x="118.25" y="-258.32" font-family="Helvetica,sans-Serif" font-size="8.00">True</text>
</g>
<!-- 8 -->
<g id="node9" class="node">
<title>8</title>
<path fill="#f9e3d3" stroke="black" d="M246,-179C246,-179 151,-179 151,-179 145,-179 139,-173 139,-167 139,-167 139,-147 139,-147 139,-141 145,-135 151,-135 151,-135 246,-135 246,-135 252,-135 258,-141 258,-147 258,-147 258,-167 258,-167 258,-173 252,-179 246,-179"/>
<text text-anchor="start" x="169.5" y="-168.6" font-family="Helvetica,sans-Serif" font-size="8.00">cabin ≤ 124.5</text>
<text text-anchor="start" x="147" y="-159.6" font-family="Helvetica,sans-Serif" font-size="8.00">squared_error = 0.17331</text>
<text text-anchor="start" x="167.5" y="-150.6" font-family="Helvetica,sans-Serif" font-size="8.00">samples = 130</text>
<text text-anchor="start" x="164.5" y="-141.6" font-family="Helvetica,sans-Serif" font-size="8.00">value = 0.22308</text>
</g>
<!-- 0&#45;&gt;8 -->
<g id="edge8" class="edge">
<title>0&#45;&gt;8</title>
<path fill="none" stroke="black" d="M96.4,-207.9C111.59,-200.25 128.77,-191.6 144.61,-183.63"/>
<polygon fill="black" stroke="black" points="146.39,-186.65 153.75,-179.03 143.25,-180.4 146.39,-186.65"/>
<text text-anchor="middle" x="130.01" y="-169.29" font-family="Helvetica,sans-Serif" font-size="8.00">False</text>
</g>
<!-- 2 -->
<g id="node3" class="node">
<title>2</title>
<path fill="#f2c29f" stroke="black" d="M401,-364C401,-364 306,-364 306,-364 300,-364 294,-358 294,-352 294,-352 294,-332 294,-332 294,-326 300,-320 306,-320 306,-320 401,-320 401,-320 407,-320 413,-326 413,-332 413,-332 413,-352 413,-352 413,-358 407,-364 401,-364"/>
<text text-anchor="start" x="320.5" y="-353.6" font-family="Helvetica,sans-Serif" font-size="8.00">embarked ≤ 1.5</text>
<text text-anchor="start" x="302" y="-344.6" font-family="Helvetica,sans-Serif" font-size="8.00">squared_error = 0.24974</text>
<text text-anchor="start" x="325" y="-335.6" font-family="Helvetica,sans-Serif" font-size="8.00">samples = 31</text>
<text text-anchor="start" x="319.5" y="-326.6" font-family="Helvetica,sans-Serif" font-size="8.00">value = 0.48387</text>
</g>
<!-- 1&#45;&gt;2 -->
<g id="edge2" class="edge">
<title>1&#45;&gt;2</title>
<path fill="none" stroke="black" d="M239.3,-279.11C259.04,-290.08 283.06,-303.42 303.89,-314.99"/>
<polygon fill="black" stroke="black" points="302.46,-318.2 312.9,-320 305.86,-312.08 302.46,-318.2"/>
</g>
<!-- 5 -->
<g id="node6" class="node">
<title>5</title>
<path fill="#e78b48" stroke="black" d="M401,-279C401,-279 306,-279 306,-279 300,-279 294,-273 294,-267 294,-267 294,-247 294,-247 294,-241 300,-235 306,-235 306,-235 401,-235 401,-235 407,-235 413,-241 413,-247 413,-247 413,-267 413,-267 413,-273 407,-279 401,-279"/>
<text text-anchor="start" x="330.5" y="-268.6" font-family="Helvetica,sans-Serif" font-size="8.00">fare ≤ 22.0</text>
<text text-anchor="start" x="302" y="-259.6" font-family="Helvetica,sans-Serif" font-size="8.00">squared_error = 0.07101</text>
<text text-anchor="start" x="325" y="-250.6" font-family="Helvetica,sans-Serif" font-size="8.00">samples = 39</text>
<text text-anchor="start" x="319.5" y="-241.6" font-family="Helvetica,sans-Serif" font-size="8.00">value = 0.92308</text>
</g>
<!-- 1&#45;&gt;5 -->
<g id="edge5" class="edge">
<title>1&#45;&gt;5</title>
<path fill="none" stroke="black" d="M258.22,-257C266.54,-257 275.17,-257 283.67,-257"/>
<polygon fill="black" stroke="black" points="283.94,-260.5 293.94,-257 283.94,-253.5 283.94,-260.5"/>
</g>
<!-- 3 -->
<g id="node4" class="node">
<title>3</title>
<path fill="#e9965a" stroke="black" d="M556,-414C556,-414 461,-414 461,-414 455,-414 449,-408 449,-402 449,-402 449,-390 449,-390 449,-384 455,-378 461,-378 461,-378 556,-378 556,-378 562,-378 568,-384 568,-390 568,-390 568,-402 568,-402 568,-408 562,-414 556,-414"/>
<text text-anchor="start" x="457" y="-403.1" font-family="Helvetica,sans-Serif" font-size="8.00">squared_error = 0.13889</text>
<text text-anchor="start" x="480" y="-394.1" font-family="Helvetica,sans-Serif" font-size="8.00">samples = 12</text>
<text text-anchor="start" x="474.5" y="-385.1" font-family="Helvetica,sans-Serif" font-size="8.00">value = 0.83333</text>
</g>
<!-- 2&#45;&gt;3 -->
<g id="edge3" class="edge">
<title>2&#45;&gt;3</title>
<path fill="none" stroke="black" d="M413.22,-362.72C424.17,-366.59 435.63,-370.63 446.64,-374.52"/>
<polygon fill="black" stroke="black" points="445.59,-377.86 456.18,-377.89 447.92,-371.26 445.59,-377.86"/>
</g>
<!-- 4 -->
<g id="node5" class="node">
<title>4</title>
<path fill="#f8decb" stroke="black" d="M556,-360C556,-360 461,-360 461,-360 455,-360 449,-354 449,-348 449,-348 449,-336 449,-336 449,-330 455,-324 461,-324 461,-324 556,-324 556,-324 562,-324 568,-330 568,-336 568,-336 568,-348 568,-348 568,-354 562,-360 556,-360"/>
<text text-anchor="start" x="457" y="-349.1" font-family="Helvetica,sans-Serif" font-size="8.00">squared_error = 0.19391</text>
<text text-anchor="start" x="480" y="-340.1" font-family="Helvetica,sans-Serif" font-size="8.00">samples = 19</text>
<text text-anchor="start" x="474.5" y="-331.1" font-family="Helvetica,sans-Serif" font-size="8.00">value = 0.26316</text>
</g>
<!-- 2&#45;&gt;4 -->
<g id="edge4" class="edge">
<title>2&#45;&gt;4</title>
<path fill="none" stroke="black" d="M413.22,-342C421.54,-342 430.17,-342 438.67,-342"/>
<polygon fill="black" stroke="black" points="438.94,-345.5 448.94,-342 438.94,-338.5 438.94,-345.5"/>
</g>
<!-- 6 -->
<g id="node7" class="node">
<title>6</title>
<path fill="#eca36f" stroke="black" d="M556,-306C556,-306 461,-306 461,-306 455,-306 449,-300 449,-294 449,-294 449,-282 449,-282 449,-276 455,-270 461,-270 461,-270 556,-270 556,-270 562,-270 568,-276 568,-282 568,-282 568,-294 568,-294 568,-300 562,-306 556,-306"/>
<text text-anchor="start" x="457" y="-295.1" font-family="Helvetica,sans-Serif" font-size="8.00">squared_error = 0.19835</text>
<text text-anchor="start" x="480" y="-286.1" font-family="Helvetica,sans-Serif" font-size="8.00">samples = 11</text>
<text text-anchor="start" x="474.5" y="-277.1" font-family="Helvetica,sans-Serif" font-size="8.00">value = 0.72727</text>
</g>
<!-- 5&#45;&gt;6 -->
<g id="edge6" class="edge">
<title>5&#45;&gt;6</title>
<path fill="none" stroke="black" d="M413.22,-268.9C421.64,-270.6 430.36,-272.37 438.95,-274.11"/>
<polygon fill="black" stroke="black" points="438.44,-277.58 448.94,-276.14 439.84,-270.72 438.44,-277.58"/>
</g>
<!-- 7 -->
<g id="node8" class="node">
<title>7</title>
<path fill="#e58139" stroke="black" d="M545.5,-252C545.5,-252 471.5,-252 471.5,-252 465.5,-252 459.5,-246 459.5,-240 459.5,-240 459.5,-228 459.5,-228 459.5,-222 465.5,-216 471.5,-216 471.5,-216 545.5,-216 545.5,-216 551.5,-216 557.5,-222 557.5,-228 557.5,-228 557.5,-240 557.5,-240 557.5,-246 551.5,-252 545.5,-252"/>
<text text-anchor="start" x="467.5" y="-241.1" font-family="Helvetica,sans-Serif" font-size="8.00">squared_error = 0.0</text>
<text text-anchor="start" x="480" y="-232.1" font-family="Helvetica,sans-Serif" font-size="8.00">samples = 28</text>
<text text-anchor="start" x="485" y="-223.1" font-family="Helvetica,sans-Serif" font-size="8.00">value = 1.0</text>
</g>
<!-- 5&#45;&gt;7 -->
<g id="edge7" class="edge">
<title>5&#45;&gt;7</title>
<path fill="none" stroke="black" d="M413.22,-248.17C424.95,-246.41 437.27,-244.56 449,-242.79"/>
<polygon fill="black" stroke="black" points="449.75,-246.22 459.12,-241.27 448.71,-239.3 449.75,-246.22"/>
</g>
<!-- 9 -->
<g id="node10" class="node">
<title>9</title>
<path fill="#f1bb94" stroke="black" d="M401,-179C401,-179 306,-179 306,-179 300,-179 294,-173 294,-167 294,-167 294,-147 294,-147 294,-141 300,-135 306,-135 306,-135 401,-135 401,-135 407,-135 413,-141 413,-147 413,-147 413,-167 413,-167 413,-173 407,-179 401,-179"/>
<text text-anchor="start" x="327.5" y="-168.6" font-family="Helvetica,sans-Serif" font-size="8.00">cabin ≤ 90.5</text>
<text text-anchor="start" x="302" y="-159.6" font-family="Helvetica,sans-Serif" font-size="8.00">squared_error = 0.24852</text>
<text text-anchor="start" x="325" y="-150.6" font-family="Helvetica,sans-Serif" font-size="8.00">samples = 26</text>
<text text-anchor="start" x="319.5" y="-141.6" font-family="Helvetica,sans-Serif" font-size="8.00">value = 0.53846</text>
</g>
<!-- 8&#45;&gt;9 -->
<g id="edge9" class="edge">
<title>8&#45;&gt;9</title>
<path fill="none" stroke="black" d="M258.22,-157C266.54,-157 275.17,-157 283.67,-157"/>
<polygon fill="black" stroke="black" points="283.94,-160.5 293.94,-157 283.94,-153.5 283.94,-160.5"/>
</g>
<!-- 12 -->
<g id="node13" class="node">
<title>12</title>
<path fill="#fbede2" stroke="black" d="M401,-94C401,-94 306,-94 306,-94 300,-94 294,-88 294,-82 294,-82 294,-62 294,-62 294,-56 300,-50 306,-50 306,-50 401,-50 401,-50 407,-50 413,-56 413,-62 413,-62 413,-82 413,-82 413,-88 407,-94 401,-94"/>
<text text-anchor="start" x="325" y="-83.6" font-family="Helvetica,sans-Serif" font-size="8.00">fare ≤ 7.8271</text>
<text text-anchor="start" x="302" y="-74.6" font-family="Helvetica,sans-Serif" font-size="8.00">squared_error = 0.12343</text>
<text text-anchor="start" x="322.5" y="-65.6" font-family="Helvetica,sans-Serif" font-size="8.00">samples = 104</text>
<text text-anchor="start" x="319.5" y="-56.6" font-family="Helvetica,sans-Serif" font-size="8.00">value = 0.14423</text>
</g>
<!-- 8&#45;&gt;12 -->
<g id="edge12" class="edge">
<title>8&#45;&gt;12</title>
<path fill="none" stroke="black" d="M239.3,-134.89C259.04,-123.92 283.06,-110.58 303.89,-99.01"/>
<polygon fill="black" stroke="black" points="305.86,-101.92 312.9,-94 302.46,-95.8 305.86,-101.92"/>
</g>
<!-- 10 -->
<g id="node11" class="node">
<title>10</title>
<path fill="#f6d3b9" stroke="black" d="M556,-198C556,-198 461,-198 461,-198 455,-198 449,-192 449,-186 449,-186 449,-174 449,-174 449,-168 455,-162 461,-162 461,-162 556,-162 556,-162 562,-162 568,-168 568,-174 568,-174 568,-186 568,-186 568,-192 562,-198 556,-198"/>
<text text-anchor="start" x="457" y="-187.1" font-family="Helvetica,sans-Serif" font-size="8.00">squared_error = 0.22837</text>
<text text-anchor="start" x="480" y="-178.1" font-family="Helvetica,sans-Serif" font-size="8.00">samples = 17</text>
<text text-anchor="start" x="474.5" y="-169.1" font-family="Helvetica,sans-Serif" font-size="8.00">value = 0.35294</text>
</g>
<!-- 9&#45;&gt;10 -->
<g id="edge10" class="edge">
<title>9&#45;&gt;10</title>
<path fill="none" stroke="black" d="M413.22,-165.83C421.64,-167.09 430.36,-168.4 438.95,-169.69"/>
<polygon fill="black" stroke="black" points="438.53,-173.17 448.94,-171.2 439.57,-166.25 438.53,-173.17"/>
</g>
<!-- 11 -->
<g id="node12" class="node">
<title>11</title>
<path fill="#e88f4f" stroke="black" d="M556,-144C556,-144 461,-144 461,-144 455,-144 449,-138 449,-132 449,-132 449,-120 449,-120 449,-114 455,-108 461,-108 461,-108 556,-108 556,-108 562,-108 568,-114 568,-120 568,-120 568,-132 568,-132 568,-138 562,-144 556,-144"/>
<text text-anchor="start" x="457" y="-133.1" font-family="Helvetica,sans-Serif" font-size="8.00">squared_error = 0.09877</text>
<text text-anchor="start" x="482.5" y="-124.1" font-family="Helvetica,sans-Serif" font-size="8.00">samples = 9</text>
<text text-anchor="start" x="474.5" y="-115.1" font-family="Helvetica,sans-Serif" font-size="8.00">value = 0.88889</text>
</g>
<!-- 9&#45;&gt;11 -->
<g id="edge11" class="edge">
<title>9&#45;&gt;11</title>
<path fill="none" stroke="black" d="M413.22,-145.1C421.64,-143.4 430.36,-141.63 438.95,-139.89"/>
<polygon fill="black" stroke="black" points="439.84,-143.28 448.94,-137.86 438.44,-136.42 439.84,-143.28"/>
</g>
<!-- 13 -->
<g id="node14" class="node">
<title>13</title>
<path fill="#ffffff" stroke="black" d="M545.5,-90C545.5,-90 471.5,-90 471.5,-90 465.5,-90 459.5,-84 459.5,-78 459.5,-78 459.5,-66 459.5,-66 459.5,-60 465.5,-54 471.5,-54 471.5,-54 545.5,-54 545.5,-54 551.5,-54 557.5,-60 557.5,-66 557.5,-66 557.5,-78 557.5,-78 557.5,-84 551.5,-90 545.5,-90"/>
<text text-anchor="start" x="467.5" y="-79.1" font-family="Helvetica,sans-Serif" font-size="8.00">squared_error = 0.0</text>
<text text-anchor="start" x="480" y="-70.1" font-family="Helvetica,sans-Serif" font-size="8.00">samples = 31</text>
<text text-anchor="start" x="485" y="-61.1" font-family="Helvetica,sans-Serif" font-size="8.00">value = 0.0</text>
</g>
<!-- 12&#45;&gt;13 -->
<g id="edge13" class="edge">
<title>12&#45;&gt;13</title>
<path fill="none" stroke="black" d="M413.22,-72C424.95,-72 437.27,-72 449,-72"/>
<polygon fill="black" stroke="black" points="449.12,-75.5 459.12,-72 449.12,-68.5 449.12,-75.5"/>
</g>
<!-- 14 -->
<g id="node15" class="node">
<title>14</title>
<path fill="#fae5d6" stroke="black" d="M556,-36C556,-36 461,-36 461,-36 455,-36 449,-30 449,-24 449,-24 449,-12 449,-12 449,-6 455,0 461,0 461,0 556,0 556,0 562,0 568,-6 568,-12 568,-12 568,-24 568,-24 568,-30 562,-36 556,-36"/>
<text text-anchor="start" x="457" y="-25.1" font-family="Helvetica,sans-Serif" font-size="8.00">squared_error = 0.16326</text>
<text text-anchor="start" x="480" y="-16.1" font-family="Helvetica,sans-Serif" font-size="8.00">samples = 73</text>
<text text-anchor="start" x="474.5" y="-7.1" font-family="Helvetica,sans-Serif" font-size="8.00">value = 0.20548</text>
</g>
<!-- 12&#45;&gt;14 -->
<g id="edge14" class="edge">
<title>12&#45;&gt;14</title>
<path fill="none" stroke="black" d="M413.22,-51.28C424.17,-47.41 435.63,-43.37 446.64,-39.48"/>
<polygon fill="black" stroke="black" points="447.92,-42.74 456.18,-36.11 445.59,-36.14 447.92,-42.74"/>
</g>
</g>
</svg>
