<?xml version="1.0" encoding="UTF-8" standalone="no"?>
<!DOCTYPE svg PUBLIC "-//W3C//DTD SVG 1.1//EN"
 "http://www.w3.org/Graphics/SVG/1.1/DTD/svg11.dtd">
<!-- Generated by graphviz version 2.50.0 (0)
 -->
<!-- Title: Tree Pages: 1 -->
<svg width="282pt" height="98pt"
 viewBox="0.00 0.00 282.00 98.00" xmlns="http://www.w3.org/2000/svg" xmlns:xlink="http://www.w3.org/1999/xlink">
<g id="graph0" class="graph" transform="scale(1 1) rotate(0) translate(4 94)">
<title>Tree</title>
<polygon fill="white" stroke="transparent" points="-4,4 -4,-94 278,-94 278,4 -4,4"/>
<!-- 0 -->
<g id="node1" class="node">
<title>0</title>
<path fill="#f6d2b8" stroke="black" d="M107,-67C107,-67 12,-67 12,-67 6,-67 0,-61 0,-55 0,-55 0,-35 0,-35 0,-29 6,-23 12,-23 12,-23 107,-23 107,-23 113,-23 119,-29 119,-35 119,-35 119,-55 119,-55 119,-61 113,-67 107,-67"/>
<text text-anchor="start" x="32" y="-56.6" font-family="Helvetica,sans-Serif" font-size="8.00">is_male ≤ 0.5</text>
<text text-anchor="start" x="8" y="-47.6" font-family="Helvetica,sans-Serif" font-size="8.00">squared_error = 0.23819</text>
<text text-anchor="start" x="28.5" y="-38.6" font-family="Helvetica,sans-Serif" font-size="8.00">samples = 713</text>
<text text-anchor="start" x="28" y="-29.6" font-family="Helvetica,sans-Serif" font-size="8.00">value = 0.3913</text>
</g>
<!-- 1 -->
<g id="node2" class="node">
<title>1</title>
<path fill="#e58139" stroke="black" d="M262,-90C262,-90 167,-90 167,-90 161,-90 155,-84 155,-78 155,-78 155,-66 155,-66 155,-60 161,-54 167,-54 167,-54 262,-54 262,-54 268,-54 274,-60 274,-66 274,-66 274,-78 274,-78 274,-84 268,-90 262,-90"/>
<text text-anchor="start" x="163" y="-79.1" font-family="Helvetica,sans-Serif" font-size="8.00">squared_error = 0.19135</text>
<text text-anchor="start" x="183.5" y="-70.1" font-family="Helvetica,sans-Serif" font-size="8.00">samples = 256</text>
<text text-anchor="start" x="180.5" y="-61.1" font-family="Helvetica,sans-Serif" font-size="8.00">value = 0.74219</text>
</g>
<!-- 0&#45;&gt;1 -->
<g id="edge1" class="edge">
<title>0&#45;&gt;1</title>
<path fill="none" stroke="black" d="M119.22,-55.36C127.64,-56.85 136.36,-58.39 144.95,-59.9"/>
<polygon fill="black" stroke="black" points="144.48,-63.37 154.94,-61.67 145.7,-56.48 144.48,-63.37"/>
<text text-anchor="middle" x="134.46" y="-74.1" font-family="Helvetica,sans-Serif" font-size="8.00">True</text>
</g>
<!-- 2 -->
<g id="node3" class="node">
<title>2</title>
<path fill="#ffffff" stroke="black" d="M262,-36C262,-36 167,-36 167,-36 161,-36 155,-30 155,-24 155,-24 155,-12 155,-12 155,-6 161,0 167,0 167,0 262,0 262,0 268,0 274,-6 274,-12 274,-12 274,-24 274,-24 274,-30 268,-36 262,-36"/>
<text text-anchor="start" x="163" y="-25.1" font-family="Helvetica,sans-Serif" font-size="8.00">squared_error = 0.15682</text>
<text text-anchor="start" x="183.5" y="-16.1" font-family="Helvetica,sans-Serif" font-size="8.00">samples = 457</text>
<text text-anchor="start" x="180.5" y="-7.1" font-family="Helvetica,sans-Serif" font-size="8.00">value = 0.19475</text>
</g>
<!-- 0&#45;&gt;2 -->
<g id="edge2" class="edge">
<title>0&#45;&gt;2</title>
<path fill="none" stroke="black" d="M119.22,-34.64C127.64,-33.15 136.36,-31.61 144.95,-30.1"/>
<polygon fill="black" stroke="black" points="145.7,-33.52 154.94,-28.33 144.48,-26.63 145.7,-33.52"/>
<text text-anchor="middle" x="134.46" y="-12.1" font-family="Helvetica,sans-Serif" font-size="8.00">False</text>
</g>
</g>
</svg>
